<?xml version="1.0" encoding="utf-8"?>
<!-- Generator: Adobe Illustrator 27.5.0, SVG Export Plug-In . SVG Version: 6.00 Build 0)  -->
<svg version="1.1" id="Layer_1" xmlns="http://www.w3.org/2000/svg" xmlns:xlink="http://www.w3.org/1999/xlink" x="0px" y="0px"
	 viewBox="0 0 9.1 11.7" enable-background="new 0 0 9.1 11.7" xml:space="preserve">
<linearGradient id="SVGID_1_" gradientUnits="userSpaceOnUse" x1="0" y1="5.85" x2="9.1" y2="5.85">
	<stop  offset="0" style="stop-color:#026078"/>
	<stop  offset="0.3994" style="stop-color:#0090B5"/>
	<stop  offset="0.5518" style="stop-color:#099EAF"/>
	<stop  offset="0.8161" style="stop-color:#16B1A8"/>
	<stop  offset="1" style="stop-color:#1AB8A5"/>
</linearGradient>
<path fill="url(#SVGID_1_)" d="M4.5,0C2,0,0,2,0,4.5c0,2.1,3.3,6,4.3,7.1c0.1,0.2,0.4,0.2,0.5,0c1-1.1,4.3-5,4.3-7.1
	C9.1,2,7,0,4.5,0z M4.5,6.6c-1.2,0-2.2-1-2.2-2.2s1-2.2,2.2-2.2s2.2,1,2.2,2.2C6.8,5.6,5.8,6.6,4.5,6.6z"/>
</svg>
